<svg width="32" height="32" viewBox="0 0 32 32" fill="none" xmlns="http://www.w3.org/2000/svg">
<rect width="32" height="32" rx="8" fill="white"/>
<path d="M18.7497 15C18.7497 14.5858 18.4139 14.25 17.9997 14.25C17.5855 14.25 17.2497 14.5858 17.2497 15V21C17.2497 21.4142 17.5855 21.75 17.9997 21.75C18.4139 21.75 18.7497 21.4142 18.7497 21V15Z" fill="#A3A3A3"/>
<path d="M13.9997 14.25C14.4139 14.25 14.7497 14.5858 14.7497 15V21C14.7497 21.4142 14.4139 21.75 13.9997 21.75C13.5855 21.75 13.2497 21.4142 13.2497 21V15C13.2497 14.5858 13.5855 14.25 13.9997 14.25Z" fill="#A3A3A3"/>
<path fill-rule="evenodd" clip-rule="evenodd" d="M14.4412 6.25C13.2575 6.25 12.2067 7.00743 11.8323 8.13037L11.4591 9.25H10.4174C8.39121 9.25 7.23461 11.5632 8.45034 13.1842C8.96922 13.876 9.24971 14.7175 9.24971 15.5823V22C9.24971 24.6234 11.3764 26.75 13.9997 26.75H17.9997C20.6231 26.75 22.7497 24.6234 22.7497 22V15.5823C22.7497 14.7175 23.0302 13.876 23.5491 13.1842C24.7648 11.5632 23.6082 9.25 21.582 9.25H20.5403L20.1671 8.13037C19.7928 7.00743 18.7419 6.25 17.5582 6.25H14.4412ZM19.9822 10.75C19.9938 10.7503 20.0054 10.7503 20.017 10.75H21.582C22.3721 10.75 22.8232 11.6521 22.3491 12.2842C21.6355 13.2357 21.2497 14.3929 21.2497 15.5823V22C21.2497 23.7949 19.7946 25.25 17.9997 25.25H13.9997C12.2048 25.25 10.7497 23.7949 10.7497 22V15.5823C10.7497 14.3929 10.3639 13.2357 9.65034 12.2842C9.17625 11.6521 9.62728 10.75 10.4174 10.75H11.9824C11.994 10.7503 12.0056 10.7503 12.0172 10.75H19.9822ZM18.9591 9.25L18.744 8.60472C18.5739 8.09429 18.0962 7.75 17.5582 7.75H14.4412C13.9032 7.75 13.4255 8.09429 13.2554 8.60472L13.0403 9.25H18.9591Z" fill="#A3A3A3"/>
</svg>
